<svg id="Isolation_Mode" data-name="Isolation Mode" xmlns="http://www.w3.org/2000/svg" viewBox="0 0 197.45 23.94"><defs><style>.cls-1{fill:#e55725;}.cls-2{fill:#473e25;}</style></defs><title>logo</title><path class="cls-1" d="M67.29,25.22c0.2-.28.34-0.44,0.34-0.44l-0.91-.54c-0.09.16-.21,0.36-0.36,0.58A6.12,6.12,0,0,1,67.29,25.22ZM82,19l-0.38.29c-0.59.47-1.69,1.31-2.88,2.22l0,0h0c-2.25,1.72-4.81,3.64-4.81,3.64,0.6,0.37,2.36,1.53,3,2l0.58-.56c0.22-.23.38-0.41,0.63-0.28a1.08,1.08,0,0,1,.75.7L79,27.39l0.84-.25,0.06,0,0.15,0a0.84,0.84,0,0,1,.21,0,0.88,0.88,0,0,1,.25.08,1,1,0,0,1,.23.15,0.58,0.58,0,0,1,.13.16,0.25,0.25,0,0,1,0,.15,0.19,0.19,0,0,1-.09.12l-1.31.9-0.07,0v0c0,0.09.1,0.15,0,.21a0.41,0.41,0,0,1-.32,0,0.75,0.75,0,0,1-.23.11l-0.93.54a0.24,0.24,0,0,1-.11,0H77.6l-0.19,0-0.2-.06-0.15-.07L77,29.37a0.12,0.12,0,0,1,0,0l0.18-.78-0.34-.1h0l-5.66-1.66S67,28.44,66.81,28.52a0.77,0.77,0,0,1-.63,0c-0.28-.11-0.47-0.3-0.26-0.8a11.55,11.55,0,0,1,.6-1.28,6.28,6.28,0,0,1-.79-0.83,1.91,1.91,0,0,1-.84.75,2.67,2.67,0,0,1,.7-1.29,0.25,0.25,0,0,1-.1-0.25,0.27,0.27,0,0,1,.28,0,7.73,7.73,0,0,1,.69-0.78c-2.3-1.48-2.66-2.45-2.45-2.73s1.34,0,1.34,0a0.28,0.28,0,0,1,.22-0.13,6.78,6.78,0,0,1,2.69.91A9.61,9.61,0,0,1,69.1,21,0.34,0.34,0,0,1,69,20.63a0.35,0.35,0,0,1,.37,0,3.56,3.56,0,0,1,1.45-1.3,2.44,2.44,0,0,1-.68,1.26,14.72,14.72,0,0,1,2.16,1.14l6.19-2.94c0.24-.11.91-0.47,1.65-0.8l1-.51A11.9,11.9,0,1,0,82,19ZM68.59,22.34c0.64,0.34,1.12.62,1.12,0.62l0.47-.21a7.61,7.61,0,0,1-.94-1.06C69,22,68.78,22.18,68.59,22.34Z" transform="translate(-59.19 -12.11)"/><path class="cls-2" d="M96.55,19l-0.23,1.66H93.06V23h2.6v1.68h-2.6v4.55H91V19h5.55Z" transform="translate(-59.19 -12.11)"/><path class="cls-2" d="M101.31,19v6.73a2.76,2.76,0,0,0,.18,1.22,1.45,1.45,0,0,0,1.4.7,1.38,1.38,0,0,0,1.56-1.19,6.54,6.54,0,0,0,0-.91V19h2.09v6.89a4.12,4.12,0,0,1-.16,1.6c-0.27.81-1.27,1.93-3.47,1.93a3.67,3.67,0,0,1-3.28-1.37,3.05,3.05,0,0,1-.44-1.93V19h2.11Z" transform="translate(-59.19 -12.11)"/><path class="cls-2" d="M112.11,19v8.52h3.67l-0.37,1.71H110V19h2.1Z" transform="translate(-59.19 -12.11)"/><path class="cls-2" d="M120.55,19v8.52h3.67l-0.37,1.71h-5.4V19h2.1Z" transform="translate(-59.19 -12.11)"/><path class="cls-2" d="M137.49,21.2a4.43,4.43,0,0,0-2.38-.78,1.26,1.26,0,0,0-1.43,1.18c0,0.53.28,0.79,1.13,1L136,23a3.07,3.07,0,0,1,2.59,3c0,2.07-1.68,3.44-4.23,3.44a7.3,7.3,0,0,1-3.49-.93l0.76-1.6a5.81,5.81,0,0,0,2.81.82c1.18,0,1.8-.48,1.8-1.4A1.42,1.42,0,0,0,135,25l-1.14-.31a3.1,3.1,0,0,1-2-1.3,2.94,2.94,0,0,1-.43-1.56c0-1.87,1.5-3.16,3.67-3.16a6,6,0,0,1,3.42,1Z" transform="translate(-59.19 -12.11)"/><path class="cls-2" d="M145.42,19l3.22,10.26h-2.21l-0.72-2.43h-3L142,29.23h-2.15L143.2,19h2.22Zm-0.21,6.12S144.88,24,144.66,23c-0.1-.47-0.41-1.81-0.41-1.81l-0.49,2c-0.19.74-.32,1.22-0.54,1.9h2Z" transform="translate(-59.19 -12.11)"/><path class="cls-2" d="M153,19V29.23H150.8V19H153Z" transform="translate(-59.19 -12.11)"/><path class="cls-2" d="M158.56,19v8.52h3.67l-0.37,1.71h-5.4V19h2.11Z" transform="translate(-59.19 -12.11)"/><path class="cls-2" d="M171,19v6.73a2.78,2.78,0,0,0,.18,1.22,1.45,1.45,0,0,0,1.4.7,1.38,1.38,0,0,0,1.56-1.19,6.77,6.77,0,0,0,0-.91V19h2.09v6.89a4.15,4.15,0,0,1-.16,1.6c-0.26.81-1.26,1.93-3.47,1.93a3.67,3.67,0,0,1-3.28-1.37,3,3,0,0,1-.44-1.93V19H171Z" transform="translate(-59.19 -12.11)"/><path class="cls-2" d="M182,19l2,4.09A19.41,19.41,0,0,1,185.1,26c-0.07-.79-0.15-2.11-0.16-2.81l0-4.18h2V29.23H184.7L183,25.32c-0.57-1.28-1.19-2.72-1.39-3.36,0.08,0.84.09,2,.11,2.9l0.06,4.37h-2V19H182Z" transform="translate(-59.19 -12.11)"/><path class="cls-2" d="M192.45,19V29.23H190.3V19h2.15Z" transform="translate(-59.19 -12.11)"/><path class="cls-2" d="M197.22,19l1.69,5.33c0.13,0.46.31,1,.47,1.78a18.85,18.85,0,0,1,.59-2L201.71,19h2.16l-3.56,10.3h-1.87L195,19h2.25Z" transform="translate(-59.19 -12.11)"/><path class="cls-2" d="M212.22,19L212,20.68h-3.5v2.37h2.93v1.68h-2.9v2.74h3.87v1.77h-6V19h5.83Z" transform="translate(-59.19 -12.11)"/><path class="cls-2" d="M219.12,19a2.84,2.84,0,0,1,3,3,2.63,2.63,0,0,1-2.28,2.83,2.09,2.09,0,0,1,.42.43c0.59,0.74,2.46,4,2.46,4H220.3c-0.4-.68-0.56-1-1-1.68-1-1.84-1.32-2.34-1.69-2.5a1.06,1.06,0,0,0-.33-0.09v4.27h-2V19h3.81Zm-1.8,4.42H218a2.16,2.16,0,0,0,1.54-.34,1.38,1.38,0,0,0,.4-1,1.2,1.2,0,0,0-.74-1.25,3.7,3.7,0,0,0-1.16-.15h-0.74v2.77Z" transform="translate(-59.19 -12.11)"/><path class="cls-2" d="M231,21.2a4.42,4.42,0,0,0-2.38-.78,1.26,1.26,0,0,0-1.43,1.18c0,0.53.28,0.79,1.13,1L229.54,23a3.07,3.07,0,0,1,2.59,3c0,2.07-1.68,3.44-4.22,3.44a7.3,7.3,0,0,1-3.49-.93l0.77-1.6a5.81,5.81,0,0,0,2.81.82c1.18,0,1.79-.48,1.79-1.4A1.42,1.42,0,0,0,228.45,25l-1.13-.31a3.09,3.09,0,0,1-2-1.3,2.94,2.94,0,0,1-.43-1.56c0-1.87,1.5-3.16,3.67-3.16a6,6,0,0,1,3.42,1Z" transform="translate(-59.19 -12.11)"/><path class="cls-2" d="M236.87,19V29.23h-2.15V19h2.15Z" transform="translate(-59.19 -12.11)"/><path class="cls-2" d="M246.74,19l-0.34,1.71H244v8.52h-2.09V20.71h-2.5V19h7.37Z" transform="translate(-59.19 -12.11)"/><path class="cls-2" d="M250.51,19l1.31,2.8a9.14,9.14,0,0,1,.52,1.31c0.12-.29.32-0.8,0.55-1.28L254.2,19h2.43l-3.27,6v4.21h-2.15V25L248,19h2.47Z" transform="translate(-59.19 -12.11)"/></svg>